# xmcd
#
# Track frame offsets:
#	150
#	8815
#	16470
#	25680
#	35787
#	45890
#	62150
#	71777
#	90045
#	105100
#	119990
#	131612
#	143242
#	153160
#	162750
#	177712
#	194707
#	207717
#	222567
#
# Disc length: 3113 seconds
#
# Revision: 2
# Processed by: cddbd v1.4PL0 Copyright (c) Steve Scherf et al.
# Submitted via: CDmax 1.9
#
DISCID=130c2713
DTITLE=Ricky Nelson - Greatest Hits Live
DYEAR=1900
DGENRE=Country
TTITLE0=Stood Up
TTITLE1=Waitin' in school
TTITLE2=I Got A Feeling
TTITLE3=Travellin' Man
TTITLE4=Hello Mary Lou
TTITLE5=Garden Party
TTITLE6=You Know  What I Mean
TTITLE7=That's Alright Mama
TTITLE8=Believe What You Say
TTITLE9=Milk Cow Blues
TTITLE10=Never Be Anyone Else But You
TTITLE11=Fools Rush In
TTITLE12=It's Up To You
TTITLE13=Poor Little Fool
TTITLE14=It's Late
TTITLE15=Honky Tonk Woman
TTITLE16=My Bucket's Got A Hole In It
TTITLE17=Boppin' The Blues
TTITLE18=Lonesome Town
EXTD=
EXTT0=(Dickerson/Herrold)
EXTT1=(Burnette/Burnette)
EXTT2=(Baker-Knight)
EXTT3=(Fuller)
EXTT4=(Mangiaracina/Pitney)
EXTT5=(Nelson)
EXTT6=(Jupp)
EXTT7=(Crudup)
EXTT8=(Burnette/Burnette)
EXTT9=(Arnold)
EXTT10=(Baker-Knight)
EXTT11=(Bloom/Mercer)
EXTT12=(Fuller)
EXTT13=(Sheeley)
EXTT14=(Burnette)
EXTT15=(Jagger/Richards)
EXTT16=(Williams)
EXTT17=(Perkins)
EXTT18=(Baker-Knight)
PLAYORDER=
